<svg width="24" height="24" fill="none" xmlns="http://www.w3.org/2000/svg"><g clip-path="url(#clip0_122_227)"><path fill="#fff" d="M0 0h24v24H0z"/><path fill-rule="evenodd" clip-rule="evenodd" d="M15.305 20.876a.861.861 0 00-.781-.364l-2.858.25a2.606 2.606 0 01-2.824-2.37l-.727-8.31a2.607 2.607 0 012.37-2.823l8.309-.727a2.607 2.607 0 012.824 2.37l.727 8.309a2.607 2.607 0 01-2.37 2.824l-.705.061a.86.86 0 00-.706.495l-.752 1.617a.861.861 0 01-1.486.13l-1.021-1.462z" fill="#FE961E"/><path fill-rule="evenodd" clip-rule="evenodd" d="M9.424 2.513a.86.86 0 00.705.495l2.959.258a2.607 2.607 0 012.37 2.824l-.728 8.31a2.607 2.607 0 01-2.824 2.369l-8.309-.727a2.607 2.607 0 01-2.37-2.824l.728-8.31A2.607 2.607 0 014.778 2.54l.806.07a.86.86 0 00.78-.364L7.27.948a.86.86 0 011.487.13l.667 1.435z" fill="#FEBF1E"/></g><defs><clipPath id="clip0_122_227"><path fill="#fff" d="M0 0h24v24H0z"/></clipPath></defs></svg>