<svg width="129" height="40" fill="none" xmlns="http://www.w3.org/2000/svg"><path fill="#FE961E" d="M0 0h40v40H0zm60.144 26h-1.552V15.76H54.8a58.38 58.38 0 01-.304 3.832c-.123 1.083-.275 2.008-.456 2.776-.176.768-.379 1.395-.608 1.88-.224.48-.472.859-.744 1.136a2.119 2.119 0 01-.864.568c-.31.101-.637.152-.984.152-.288 0-.51-.027-.664-.08-.155-.048-.232-.123-.232-.224v-.984h.56c.213 0 .424-.04.632-.12.208-.085.408-.253.6-.504.192-.25.373-.608.544-1.072.17-.464.325-1.077.464-1.84.139-.763.259-1.693.36-2.792a71.19 71.19 0 00.232-3.952h6.808V26zm13.521-5.728a6.65 6.65 0 01-.408 2.368 5.42 5.42 0 01-1.152 1.848 5.188 5.188 0 01-1.792 1.208c-.693.283-1.461.424-2.304.424-.842 0-1.61-.141-2.304-.424a5.204 5.204 0 01-1.784-1.208 5.42 5.42 0 01-1.152-1.848 6.65 6.65 0 01-.408-2.368c0-.859.136-1.645.408-2.36a5.406 5.406 0 011.152-1.856 5.15 5.15 0 011.784-1.216c.694-.288 1.462-.432 2.304-.432.843 0 1.611.144 2.304.432a5.133 5.133 0 011.792 1.216c.496.517.88 1.136 1.152 1.856.272.715.408 1.501.408 2.36zm-1.592 0c0-.704-.096-1.336-.288-1.896a3.969 3.969 0 00-.816-1.416 3.519 3.519 0 00-1.28-.896 4.346 4.346 0 00-1.68-.312c-.613 0-1.17.104-1.672.312-.501.208-.93.507-1.288.896a3.969 3.969 0 00-.816 1.416c-.192.56-.288 1.192-.288 1.896s.096 1.336.288 1.896c.192.555.464 1.027.816 1.416.358.384.787.68 1.288.888a4.423 4.423 0 001.672.304c.619 0 1.179-.101 1.68-.304a3.564 3.564 0 001.28-.888c.352-.39.624-.861.816-1.416.192-.56.288-1.192.288-1.896zM82.79 15.76h-5.352V26h-1.552V14.536h6.904v1.224zm11.735 4.512a6.65 6.65 0 01-.408 2.368 5.42 5.42 0 01-1.152 1.848 5.188 5.188 0 01-1.792 1.208c-.694.283-1.462.424-2.304.424-.843 0-1.61-.141-2.304-.424a5.204 5.204 0 01-1.784-1.208 5.42 5.42 0 01-1.152-1.848 6.65 6.65 0 01-.408-2.368c0-.859.136-1.645.408-2.36a5.406 5.406 0 011.152-1.856 5.15 5.15 0 011.784-1.216c.693-.288 1.461-.432 2.304-.432.842 0 1.61.144 2.304.432a5.133 5.133 0 011.792 1.216c.496.517.88 1.136 1.152 1.856.272.715.408 1.501.408 2.36zm-1.592 0c0-.704-.096-1.336-.288-1.896a3.969 3.969 0 00-.816-1.416 3.519 3.519 0 00-1.28-.896 4.345 4.345 0 00-1.68-.312c-.614 0-1.17.104-1.672.312-.502.208-.93.507-1.288.896a3.969 3.969 0 00-.816 1.416c-.192.56-.288 1.192-.288 1.896s.096 1.336.288 1.896c.192.555.464 1.027.816 1.416.357.384.786.68 1.288.888a4.423 4.423 0 001.672.304c.618 0 1.178-.101 1.68-.304a3.564 3.564 0 001.28-.888c.352-.39.624-.861.816-1.416.192-.56.288-1.192.288-1.896zm11.049-4.432h-3.712V26h-1.544V15.84h-3.72v-1.304h8.976v1.304zm10.989-1.304V26h-1.552v-8.144c0-.23.005-.467.016-.712.01-.25.034-.515.072-.792-.091.24-.187.464-.288.672-.102.208-.206.39-.312.544l-5.376 7.944a1.433 1.433 0 01-.288.336.608.608 0 01-.408.152h-1.152V14.536h1.552v8.152c0 .23-.006.47-.016.72-.011.245-.035.51-.072.792a7.1 7.1 0 01.288-.68c.106-.208.21-.392.312-.552l5.376-7.944c.074-.123.17-.235.288-.336a.604.604 0 01.408-.152h1.152zM126.742 26h-1.56V15.76h-5.728V26h-1.552V14.536h8.84V26z"/></svg>