<svg width="60" height="60" fill="none" xmlns="http://www.w3.org/2000/svg"><rect width="60" height="60" rx="8" fill="#F49B34"/><g clip-path="url(#clip0_45_2961)"><path d="M32.526 34.569a12.48 12.48 0 003.751-1.442l-.048.026c.512-.312.845-.842.845-1.444 0-.952-.836-1.725-1.868-1.725a1.98 1.98 0 00-.976.254l.008-.005c-1.217.714-2.7 1.136-4.289 1.136a8.552 8.552 0 01-4.322-1.154l.033.018a1.96 1.96 0 00-.994-.265c-.66 0-1.24.317-1.573.795l-.004.007v.005a1.61 1.61 0 00-.287.918c0 .611.344 1.147.863 1.453l.007.004a12.22 12.22 0 003.623 1.399l.08.014-3.568 3.292c-.342.31-.554.742-.554 1.22 0 .464.2.885.525 1.193l.03.029c.336.31.8.502 1.312.502s.976-.192 1.312-.502l3.518-3.234 3.497 3.235c.338.312.805.506 1.32.506 1.03 0 1.866-.772 1.866-1.724 0-.475-.209-.906-.546-1.218l-3.56-3.293h-.001zm-2.577-4.8c3.516-.002 6.365-2.636 6.365-5.884 0-3.25-2.852-5.884-6.37-5.884-3.52 0-6.372 2.634-6.372 5.884v.006c.007 3.248 2.86 5.879 6.377 5.879zm0-8.32c1.458 0 2.639 1.091 2.639 2.437 0 1.346-1.181 2.437-2.639 2.437-1.455 0-2.636-1.089-2.638-2.433v-.002c0-1.346 1.18-2.438 2.638-2.439z" fill="#fff"/></g><defs><clipPath id="clip0_45_2961"><path fill="#fff" transform="translate(22.8 18)" d="M0 0h14.4v22.8H0z"/></clipPath></defs></svg>