<svg width="60" height="60" fill="none" xmlns="http://www.w3.org/2000/svg"><rect width="60" height="60" rx="8" fill="#4680C2"/><g clip-path="url(#clip0_45_2953)"><path d="M29.716 38.294h1.577s.477-.054.72-.322c.224-.247.216-.71.216-.71s-.032-2.164.952-2.483c.968-.314 2.213 2.092 3.53 3.019.998.7 1.755.546 1.755.546l3.526-.05s1.845-.117.97-1.6c-.07-.121-.51-1.097-2.622-3.102-2.21-2.099-1.914-1.758.75-5.388 1.621-2.21 2.27-3.56 2.067-4.137-.193-.55-1.386-.405-1.386-.405l-3.967.023s-.294-.04-.513.093c-.213.132-.35.435-.35.435s-.628 1.711-1.467 3.166c-1.767 3.07-2.475 3.232-2.763 3.041-.672-.444-.504-1.785-.504-2.737 0-2.975.44-4.215-.86-4.536-.432-.106-.748-.177-1.852-.19-1.416-.014-2.616.006-3.294.345-.452.226-.8.73-.587.76.262.035.856.163 1.171.602.408.565.393 1.838.393 1.838s.235 3.501-.546 3.937c-.536.298-1.27-.31-2.846-3.097-.807-1.426-1.418-3.004-1.418-3.004s-.117-.293-.326-.45c-.254-.191-.61-.252-.61-.252l-3.773.024s-.566.017-.773.268c-.185.225-.015.687-.015.687s2.953 7.066 6.296 10.628c3.067 3.265 6.549 3.05 6.549 3.05z" fill="#fff"/></g><defs><clipPath id="clip0_45_2953"><path fill="#fff" transform="translate(16.8 18)" d="M0 0h26.4v24H0z"/></clipPath></defs></svg>