<svg width="60" height="60" fill="none" xmlns="http://www.w3.org/2000/svg"><rect x=".5" y=".5" width="59" height="59" rx="7.5" fill="#fff" stroke="#DADADA"/><g clip-path="url(#clip0_45_2965)"><path d="M40.989 30.206c0-.901-.075-1.56-.237-2.241H30.219v4.068h6.182c-.124 1.01-.797 2.533-2.293 3.556l-.02.137 3.33 2.52.23.023c2.119-1.912 3.34-4.726 3.34-8.063z" fill="#4285F4"/><path d="M30.22 40.924c3.028 0 5.57-.974 7.428-2.655l-3.54-2.68c-.947.646-2.219 1.097-3.889 1.097a6.74 6.74 0 01-6.382-4.556l-.131.011-3.463 2.619-.045.123c1.845 3.58 5.634 6.041 10.021 6.041z" fill="#34A853"/><path d="M23.837 32.13a6.61 6.61 0 01-.373-2.168c0-.755.137-1.486.36-2.168l-.005-.145-3.506-2.661-.115.053A10.77 10.77 0 0019 29.962c0 1.766.436 3.435 1.197 4.921l3.64-2.753z" fill="#FBBC05"/><path d="M30.22 23.239c2.106 0 3.527.889 4.337 1.632l3.166-3.02C35.778 20.083 33.248 19 30.219 19c-4.387 0-8.177 2.46-10.021 6.041l3.627 2.753a6.767 6.767 0 016.394-4.555z" fill="#EB4335"/></g><defs><clipPath id="clip0_45_2965"><path fill="#fff" transform="translate(19 19)" d="M0 0h22v22H0z"/></clipPath></defs></svg>