<svg width="60" height="60" fill="none" xmlns="http://www.w3.org/2000/svg"><rect width="60" height="60" rx="8" fill="#0460F8"/><g clip-path="url(#clip0_45_2976)"><path d="M29.585 23.274c-3.625 0-6.814 3.222-6.814 6.877 0 3.62 3.188 6.804 6.813 6.804a6.749 6.749 0 004.782-1.986l.019.677c-.018 2.066 2.682 3.447 4.498 2.03 4.01-3.124 4.25-11.155.139-15.444-3.932-4.102-10.455-4.916-15.402-1.976-6.467 3.844-6.597 11.263-4.158 15.48 3.608 6.245 11.334 6.365 14.11 5.182 1.837-.78 1.02-3.169-.75-2.454-3.492 1.406-9.37-.004-11.423-4.739-1.886-4.342.054-8.964 3.086-11.052 2.852-1.964 8.213-2.539 12.209.954 4.288 3.748 2.467 10.214.946 11.777-.39.397-1.092.078-1.03-.542l-.004-9.464c0-.267-.182-1.108-1.073-1.108h-.145c-.57 0-.98.458-.98 1.067v-.005c-1.265-1.268-2.99-2.078-4.823-2.078zm-.025 11.452c-2.414 0-4.256-1.732-4.256-4.476 0-2.448 1.523-4.605 4.268-4.605h.09c2.378 0 4.347 1.594 4.484 4.244l.006.535c-.128 2.331-1.9 4.302-4.592 4.302z" fill="#F59A02"/></g><defs><clipPath id="clip0_45_2976"><path fill="#fff" transform="translate(18 18)" d="M0 0h24v24H0z"/></clipPath></defs></svg>