<svg width="60" height="60" fill="none" xmlns="http://www.w3.org/2000/svg"><rect width="60" height="60" rx="8" fill="#29A8E9"/><g clip-path="url(#clip0_45_2957)"><path d="M27.632 32.916l-.364 5.119c.52 0 .746-.224 1.017-.493l2.44-2.333 5.06 3.705c.927.517 1.58.244 1.83-.854l3.32-15.557.002-.001c.294-1.372-.496-1.908-1.4-1.572L20.02 28.402c-1.332.517-1.312 1.26-.226 1.596l4.99 1.552 11.588-7.252c.546-.36 1.042-.161.634.2l-9.375 8.418z" fill="#fff"/></g><defs><clipPath id="clip0_45_2957"><path fill="#fff" transform="translate(19 19)" d="M0 0h22v22H0z"/></clipPath></defs></svg>